<svg height="512pt" viewBox="-6 0 512 512" width="512pt" xmlns="http://www.w3.org/2000/svg"><path d="m303.382812 377.695312-38.457031 38.460938-21.214843-21.210938 38.460937-38.460937v-76.816406h-117.070313v-30h118.558594l77.699219-77.699219c10.96875-10.96875 23.445313-20.015625 37.199219-26.996094l.003906-53.878906h102.304688v-33.441406c0-31.789063-25.863282-57.652344-57.652344-57.652344h-300.429688c-31.679687 0-57.453125 25.773438-57.453125 57.453125l-.023437 363.457031h-85.308594v33.4375c0 31.789063 25.863281 57.652344 57.652344 57.652344h283.425781c9.902344 0 19.226563-2.515625 27.363281-6.945312 17.910156-9.742188 30.089844-28.730469 30.089844-50.507813l.007812-76.851563zm32.382813-277.363281v30h-170.664063v-30zm-140.664063 224v30h-30v-30zm-30-149.332031h96v30h-96zm0 0"/><path d="m500.71875 188.851562-1.4375-28.265624-28.265625-1.4375c-1.96875-.097657-3.941406-.148438-5.90625-.148438-24.246094 0-47.847656 7.59375-67.476563 21.484375l18.289063 18.289063-21.210937 21.214843-19.476563-19.472656-63.0625 63.066406v62.902344l33.890625-33.894531 21.214844 21.214844-33.894532 33.890624h62.902344l28.835938-28.835937-19.652344-19.65625 21.210938-21.210937 19.65625 19.65625 20.351562-20.351563c23.300781-23.300781 35.703125-55.535156 34.03125-88.445313zm0 0"/></svg>